<svg xmlns="http://www.w3.org/2000/svg" viewBox="0 0 478.34598 418.81989"><defs><style>.cls-1{fill:#fff;}</style></defs><path class="cls-1" d="M419.406,250.75989v-3.348a.72208.72208,0,0,0-.72-.72h-7.308c-1.692,0-2.304-.576-2.304-2.448v-3.816h9.324a.72216.72216,0,0,0,.72-.72v-3.42005a.72211.72211,0,0,0-.72-.72h-9.324v-3.276c0-1.872.612-2.448,2.304-2.448h7.308a.72208.72208,0,0,0,.72-.72v-3.348c0-.468-.216-.648-.72-.72a41.874,41.874,0,0,0-6.948-.468c-4.644,0-8.78394,1.152-8.78394,7.704v11.952c0,6.55194,4.10394,7.74,8.74793,7.74a42.44873,42.44873,0,0,0,6.984-.468C419.19,251.44385,419.406,251.22784,419.406,250.75989Z"/><path class="cls-1" d="M324.007,224.91187a.69218.69218,0,0,0-.72.684v15.228c0,.252-.108.324-.18.324-.108,0-.144-.072-.288-.288l-8.532-14.832c-.432-.756-.792-1.116-1.512-1.116h-3.636a1.36734,1.36734,0,0,0-1.368,1.368v24.66a.72207.72207,0,0,0,.72.72h4.248a.72209.72209,0,0,0,.72-.72v-14.58c0-.216.072-.288.18-.288.108,0,.18.072.324.288l8.208,14.184a1.86226,1.86226,0,0,0,1.872,1.116h3.528a1.39857,1.39857,0,0,0,1.404-1.368v-24.696a.69218.69218,0,0,0-.72-.684Z"/><path class="cls-1" d="M147.213,251.65985h4.716a.72123.72123,0,0,0,.719-.72v-25.344a.69129.69129,0,0,0-.719-.684h-4.716a.69214.69214,0,0,0-.72.684v9.576h-8.892v-9.576a.69213.69213,0,0,0-.72-.684h-4.716a.69218.69218,0,0,0-.72.684v25.344a.72212.72212,0,0,0,.72.72h4.716a.72207.72207,0,0,0,.72-.72v-10.404h8.892v10.404A.72207.72207,0,0,0,147.213,251.65985Z"/><path class="cls-1" d="M215.756,241.79584c.684,0,1.8.07208,2.556.07208l.39594-.03607,4.824,9.108c.18.36.324.72.72.72h5.508c.39606,0,.54-.18.54-.432a.93843.93843,0,0,0-.108-.396l-5.436-10.152a7.25607,7.25607,0,0,0,4.644-7.2v-.468c0-6.37195-4.716-8.424-10.836-8.424a56.98108,56.98108,0,0,0-7.308.468c-1.116.18-1.62005.504-1.62005,1.728v24.156a.72212.72212,0,0,0,.72.72h4.68a.7221.7221,0,0,0,.72-.72Zm0-11.88c.432-.036,2.304-.108,2.808-.108,3.024,0,4.716,1.008,4.716,3.204v.468c0,2.448-1.188,3.42-4.968,3.42-.39605,0-2.16-.036-2.556-.072Z"/><path class="cls-1" d="M71.721,236.79187l-4.608-2.484c-1.944-1.044-2.412-1.512-2.412-2.52,0-1.296.756-1.908,2.808-1.908,2.448,0,6.624.324,7.632.396h.072a.5487.5487,0,0,0,.612-.612v-3.636a.63224.63224,0,0,0-.54-.648,39.73233,39.73233,0,0,0-7.632-.792c-6.984,0-9.216,3.06-9.216,7.02,0,2.628.9,4.896,4.248,6.876l4.968,2.952c1.872,1.116,2.376,1.692,2.376,2.736,0,1.728-.72,2.52-3.204,2.52-1.404,0-5.364-.288-6.84-.432h-.108a.59806.59806,0,0,0-.648.684v3.528c0,.39606.36.61206.72.72a26.72465,26.72465,0,0,0,6.804.792c7.308,0,9.82806-4.068,9.82806-7.884C76.58105,241.18384,75.465,238.80786,71.721,236.79187Z"/><path class="cls-1" d="M194.552,229.84387h7.308a.7221.7221,0,0,0,.72-.72v-3.348c0-.468-.216-.648-.72-.72a41.873,41.873,0,0,0-6.94794-.468c-4.644,0-8.784,1.152-8.784,7.704v11.952c0,6.55194,4.10394,7.74,8.748,7.74a42.44712,42.44712,0,0,0,6.984-.468c.504-.072.72-.288.72-.756v-3.348a.72209.72209,0,0,0-.72-.72h-7.308c-1.692,0-2.304-.576-2.304-2.448v-3.816h9.324a.72212.72212,0,0,0,.72-.72v-3.42005a.72207.72207,0,0,0-.72-.72h-9.324v-3.276C192.248,230.41986,192.86,229.84387,194.552,229.84387Z"/><path class="cls-1" d="M98.325,228.58386c-.82794-3.456-3.456-3.996-5.94-3.996-2.48395,0-5.14795.54-5.976,3.996l-5.364,22.32a1.56462,1.56462,0,0,1-.03595.18.558.558,0,0,0,.612.57593h5.04a.7656.7656,0,0,0,.72-.648l1.296-5.904h7.38l1.296,5.904a.76559.76559,0,0,0,.72.648h5.04a.558.558,0,0,0,.612-.57593,1.56232,1.56232,0,0,1-.036-.18Zm-8.64,11.592,2.196-9.936c.072-.36.18-.54.504-.54.324,0,.396.18.468.54l2.196,9.936Z"/><path class="cls-1" d="M124.137,251.37189c.504-.14405.792-.324.792-.828v-3.492a.63564.63564,0,0,0-.684-.72h-.108c-1.368.108-3.348.288-5.328.288-2.484,0-4.464-1.296-4.464-6.084v-4.536c0-4.788,1.98-6.084,4.464-6.084,1.98,0,3.96.18,5.328.288h.108a.6356.6356,0,0,0,.684-.72v-3.492c0-.504-.288-.648-.792-.792a20.43041,20.43041,0,0,0-5.364-.612c-5.472,0-10.656,2.844-10.656,11.412v4.536c0,8.568,5.184,11.448,10.656,11.448A20.43308,20.43308,0,0,0,124.137,251.37189Z"/><path class="cls-1" d="M175.976,247.98785l5.364-22.32a1.55613,1.55613,0,0,1,.036-.17993.558.558,0,0,0-.612-.57605h-5.04a.72976.72976,0,0,0-.684.648l-4.5,20.772c-.072.396-.18.54-.504.54-.324,0-.43207-.14405-.504-.54l-4.5-20.772a.7657.7657,0,0,0-.72-.648H159.308a.61.61,0,0,0-.64795.57605c0,.072.03595.108.03595.17993l5.36408,22.32c.82794,3.456,3.49194,3.996,5.976,3.996C172.52,251.98389,175.148,251.44385,175.976,247.98785Z"/><path class="cls-1" d="M395.07,225.41589a34.11523,34.11523,0,0,0-7.524-.828c-5.22,0-10.944,2.304-10.944,11.484v4.464c0,9.108,6.156,11.448,10.26,11.448a39.06034,39.06034,0,0,0,8.064-.75605c.54-.108.72009-.324.72009-.82794v-12.096a.72219.72219,0,0,0-.72009-.72h-4.608a.69212.69212,0,0,0-.684.72v8.28c-.864.072-1.764.108-2.772.108-1.764,0-4.03192-1.152-4.03192-6.12v-4.5c0-4.71594,1.79992-6.12,4.71594-6.12,3.06,0,5.76.216,7.488.288h.108c.32391,0,.53992-.072.53992-.468v-3.816C395.682,225.63184,395.43005,225.48792,395.07,225.41589Z"/><path class="cls-1" d="M243.727,246.69189c-1.403,0-5.363-.288-6.839-.432h-.109a.59738.59738,0,0,0-.647.684v3.528c0,.39606.36.61206.719.72a26.73361,26.73361,0,0,0,6.805.792c7.307,0,9.828-4.068,9.828-7.884,0-2.916-1.117-5.292-4.86-7.308l-4.609-2.484c-1.943-1.044-2.411-1.512-2.411-2.52,0-1.296.75507-1.908,2.807-1.908,2.44806,0,6.62506.324,7.633.396h.071a.5487.5487,0,0,0,.612-.612v-3.636a.6314.6314,0,0,0-.54-.648,39.71314,39.71314,0,0,0-7.632-.792c-6.983,0-9.216,3.06-9.216,7.02,0,2.628.9,4.896,4.249,6.876l4.967,2.952c1.87305,1.116,2.377,1.692,2.377,2.736C246.932,245.8999,246.212,246.69189,243.727,246.69189Z"/><path class="cls-1" d="M356.731,235.96387c0-7.596-4.32-11.376-11.484-11.376a53.98345,53.98345,0,0,0-7.668.54,1.08825,1.08825,0,0,0-1.044,1.26v23.796a1.08825,1.08825,0,0,0,1.044,1.26,53.98327,53.98327,0,0,0,7.668.54c7.164,0,11.484-3.78,11.484-11.376Zm-6.156,4.644c0,4.86-2.088,6.156-5.328,6.156-.9,0-2.052-.036-2.556-.072v-16.812c.504-.036,1.656-.072,2.556-.072,3.24,0,5.328,1.296,5.328,6.156Z"/><path class="cls-1" d="M265.003,250.93988a.72212.72212,0,0,0,.72.72h4.716a.72207.72207,0,0,0,.72-.72v-20.952h5.832a.72413.72413,0,0,0,.756-.684v-3.708a.72412.72412,0,0,0-.756-.684H259.135a.69213.69213,0,0,0-.72.684v3.708a.69214.69214,0,0,0,.72.684h5.868Z"/><path class="cls-1" d="M284.731,228.58386l-5.364,22.32a1.56462,1.56462,0,0,1-.036.18.558.558,0,0,0,.61194.57593h5.04a.76565.76565,0,0,0,.72-.648l1.296-5.904h7.38l1.296,5.904a.76554.76554,0,0,0,.72.648h5.04a.55806.55806,0,0,0,.61206-.57593,1.56,1.56,0,0,1-.03607-.18l-5.364-22.32c-.828-3.456-3.456-3.996-5.94-3.996S285.559,225.12787,284.731,228.58386Zm5.472,1.656c.072-.36.17994-.54.504-.54s.396.18.468.54l2.196,9.936h-5.364Z"/><path class="cls-1" d="M292.867,222.82385h3.384a.78736.78736,0,0,0,.792-.72v-3.348a.78736.78736,0,0,0-.792-.72h-3.384a.75382.75382,0,0,0-.756.72v3.348A.75382.75382,0,0,0,292.867,222.82385Z"/><path class="cls-1" d="M369.078,224.91187h-4.824a.63353.63353,0,0,0-.648.684v25.344a.6639.6639,0,0,0,.648.72h4.824a.69218.69218,0,0,0,.68408-.72v-25.344A.662.662,0,0,0,369.078,224.91187Z"/><path class="cls-1" d="M284.29907,218.75586v3.348a.78731.78731,0,0,0,.79193.72h3.384a.75382.75382,0,0,0,.756-.72v-3.348a.75382.75382,0,0,0-.756-.72h-3.384A.78731.78731,0,0,0,284.29907,218.75586Z"/><path class="cls-1" d="M62.212,104.59485a46.7792,46.7792,0,0,0,2.431,7.699,22.93018,22.93018,0,0,0,4.153,6.381,70.88821,70.88821,0,0,0,4.964,5.065,27.89761,27.89761,0,0,0,6.28,4.052q4.05,2.028,6.584,3.14a65.0942,65.0942,0,0,0,7.293,2.533q4.75809,1.41907,7.19208,2.025,2.43145.609,7.29395,1.824,6.078,1.41908,9.116,2.228,3.039.813,7.395,2.431a29.10477,29.10477,0,0,1,6.483,3.141,14.54161,14.54161,0,0,1,3.748,4.051,10.50259,10.50259,0,0,1,1.621,5.774q0,7.70251-6.78693,12.156a28.68027,28.68027,0,0,1-16.106,4.457,32.25425,32.25425,0,0,1-8.91407-1.216,24.01351,24.01351,0,0,1-7.598-3.646,16.86012,16.86012,0,0,1-5.267-6.382,20.30091,20.30091,0,0,1-1.92492-9.015H59.173q0,22.69207,15.093,35.757,15.08991,13.068,39.809,13.067a70.74443,70.74443,0,0,0,27.046-4.862,43.64049,43.64049,0,0,0,19.348-15.397q7.49239-10.5315,7.496-25.324a40.70759,40.70759,0,0,0-1.722-12.054,45.03579,45.03579,0,0,0-4.052-9.522,25.392,25.392,0,0,0-6.787-7.293q-4.458-3.34351-7.79993-5.369a51.9181,51.9181,0,0,0-9.42-4.153q-6.078-2.127-9.319-3.039-3.24307-.912-9.725-2.532-5.8785-1.416-8.813-2.128a72.58436,72.58436,0,0,1-7.192-2.228,24.65671,24.65671,0,0,1-6.28-3.039,14.92724,14.92724,0,0,1-3.545-3.849,9.6022,9.6022,0,0,1-1.52-5.369q0-6.48147,5.977-9.927a27.71369,27.71369,0,0,1,14.07995-3.444q9.117,0,15.29609,4.558,6.17688,4.55852,6.179,13.27H163.71q0-21.27146-13.472-33.428-13.476-12.15444-37.58106-12.155-23.90688,0-37.68194,11.142Q61.196,75.11985,61.199,95.37689A40.43523,40.43523,0,0,0,62.212,104.59485Z"/><path class="cls-1" d="M250.225,167.09485a28.67794,28.67794,0,0,1-16.106,4.457,32.25885,32.25885,0,0,1-8.914-1.216,24.007,24.007,0,0,1-7.597-3.646,16.85282,16.85282,0,0,1-5.268-6.382,20.29973,20.29973,0,0,1-1.924-9.015H179.41907q0,22.69207,15.093,35.757,15.09,13.068,39.81,13.067a70.74816,70.74816,0,0,0,27.046-4.862,43.63769,43.63769,0,0,0,19.347-15.397q7.49248-10.5315,7.496-25.324a40.70759,40.70759,0,0,0-1.722-12.054,45.02854,45.02854,0,0,0-4.052-9.522,25.37707,25.37707,0,0,0-6.787-7.293q-4.458-3.34351-7.799-5.369a51.96352,51.96352,0,0,0-9.421-4.153q-6.07791-2.127-9.319-3.039-3.243-.912-9.725-2.532-5.877-1.416-8.81195-2.128a72.4257,72.4257,0,0,1-7.192-2.228,24.64832,24.64832,0,0,1-6.281-3.039,14.9463,14.9463,0,0,1-3.545-3.849,9.60159,9.60159,0,0,1-1.519-5.369q0-6.48147,5.976-9.927a27.7165,27.7165,0,0,1,14.08-3.444q9.117,0,15.296,4.558,6.177,4.55852,6.179,13.27h30.389q0-21.27146-13.473-33.428-13.47454-12.15444-37.58008-12.155-23.90844,0-37.68292,11.142-13.77906,11.145-13.77606,31.402a40.49372,40.49372,0,0,0,1.013,9.218,46.86159,46.86159,0,0,0,2.431,7.699,22.95193,22.95193,0,0,0,4.153,6.381q2.73606,3.039,4.96405,5.065a27.89705,27.89705,0,0,0,6.28,4.052q4.05,2.028,6.584,3.14a65.19507,65.19507,0,0,0,7.294,2.533q4.758,1.41907,7.192,2.025,2.43145.609,7.293,1.824,6.078,1.41908,9.11706,2.228,3.03891.813,7.394,2.431a29.10554,29.10554,0,0,1,6.483,3.141,14.52726,14.52726,0,0,1,3.748,4.051,10.49446,10.49446,0,0,1,1.621,5.774Q257.012,162.64135,250.225,167.09485Z"/><polygon class="cls-1" points="335.3 138.732 388.582 138.732 388.582 197.281 419.173 197.281 419.173 55.467 388.582 55.467 388.582 110.166 335.3 110.166 335.3 55.467 304.506 55.467 304.506 197.281 335.3 197.281 335.3 138.732"/><path class="cls-1" d="M6.897,64.62787a6.89716,6.89716,0,0,0,6.897-6.897V25.69989a11.62876,11.62876,0,0,1,11.576-11.906H57.543A6.89694,6.89694,0,1,0,57.543,0H24.661A24.661,24.661,0,0,0,0,24.66089V57.73083A6.89717,6.89717,0,0,0,6.897,64.62787Z"/><path class="cls-1" d="M57.543,290.26385H25.37a11.62853,11.62853,0,0,1-11.576-11.905v-32.032a6.897,6.897,0,1,0-13.794,0v33.06995a24.66094,24.66094,0,0,0,24.661,24.66107H57.543a6.897,6.897,0,0,0,0-13.79407Z"/><path class="cls-1" d="M453.685,0H420.803a6.89694,6.89694,0,1,0,0,13.79388h32.173a11.62876,11.62876,0,0,1,11.576,11.906V57.73083a6.897,6.897,0,1,0,13.794,0V24.66089A24.661,24.661,0,0,0,453.685,0Z"/><path class="cls-1" d="M471.449,239.42987a6.89717,6.89717,0,0,0-6.897,6.897v32.032a11.62853,11.62853,0,0,1-11.576,11.905H420.803a6.897,6.897,0,0,0,0,13.79407h32.882a24.6609,24.6609,0,0,0,24.661-24.66107V246.3269A6.89711,6.89711,0,0,0,471.449,239.42987Z"/><path class="cls-1" d="M266.137,394.50684c-6.427,0-10.077,4.111-10.077,10.667v3.104c0,8.27606,5.959,10.54206,10.161,10.54206a37.32384,37.32384,0,0,0,8.147-.714c.755-.126.881-.41907.881-1.09009v-2.76892c0-.42005-.336-.63105-.755-.63105h-.126c-1.762.169-4.65906.421-7.727.421-4.03406,0-5.043-2.901-5.043-5.339v-.126h13.693c.587,0,.839-.378.839-1.04895v-2.34906C276.13,398.91187,272.606,394.50684,266.137,394.50684Zm4.413,10.122h-8.91v-.168c0-3.322,1.891-5.171,4.497-5.171s4.413,1.891,4.413,5.171Z"/><path class="cls-1" d="M292.216,394.50684a9.77425,9.77425,0,0,0-6.006,2.014v-.88a.84229.84229,0,0,0-.839-.84H281.72a.84229.84229,0,0,0-.839.84v21.96094a.8794.8794,0,0,0,.839.88208h3.861a.87945.87945,0,0,0,.839-.88208v-16.88a11.89018,11.89018,0,0,1,5.796-1.512.84246.84246,0,0,0,.84-.84v-3.024A.84163.84163,0,0,0,292.216,394.50684Z"/><path class="cls-1" d="M323.004,394.50684c-6.426,0-10.077,4.111-10.077,10.667v3.104c0,8.27606,5.959,10.54206,10.161,10.54206a37.31165,37.31165,0,0,0,8.147-.714c.756-.126.882-.41907.882-1.09009v-2.76892c0-.42005-.33606-.63105-.75605-.63105h-.126c-1.762.169-4.658.421-7.726.421-4.035,0-5.043-2.901-5.043-5.339v-.126h13.69208c.588,0,.84-.378.84-1.04895v-2.34906C332.99805,398.91187,329.473,394.50684,323.004,394.50684Zm4.413,10.122h-8.909v-.168c0-3.322,1.891-5.171,4.496-5.171,2.606,0,4.413,1.891,4.413,5.171Z"/><path class="cls-1" d="M308.974,414.4989h-2.226c-1.512,0-1.63794-.252-1.63794-2.353v-13.192h3.78a.84229.84229,0,0,0,.84-.839v-2.475a.84166.84166,0,0,0-.84-.839h-3.78v-4.326a.60657.60657,0,0,0-.67206-.63h-.167l-3.903.672a.90236.90236,0,0,0-.839.84v3.444H295.581a.84161.84161,0,0,0-.84.839v1.887a.90151.90151,0,0,0,.84.839l3.94806.588v13.192c0,5.625,1.93,6.674,6.673,6.674a17.34752,17.34752,0,0,0,2.856-.29407c.546-.08393.798-.33594.798-.755v-2.643C309.856,414.70886,309.52,414.4989,308.974,414.4989Z"/><path class="cls-1" d="M342.28,412.2309h-3.776a.77118.77118,0,0,0-.797.797v4.742a.80669.80669,0,0,0,.797.84h3.776a.80669.80669,0,0,0,.797-.84v-4.742A.77119.77119,0,0,0,342.28,412.2309Z"/><path class="cls-1" d="M342.406,386.52686H338.42a.87362.87362,0,0,0-.881.798l.629,21.336a.87926.87926,0,0,0,.881.84h2.727a.84248.84248,0,0,0,.84-.84l.629-21.336A.83471.83471,0,0,0,342.406,386.52686Z"/><path class="cls-1" d="M253.41,387.32489h-4.452a.77118.77118,0,0,0-.714.752l-3.024,25.036c-.042.37806-.042.63007-.21.63007-.168,0-.168-.252-.252-.63007l-3.612-14.744a2.33143,2.33143,0,0,0-2.646-1.88794h-2.898a2.33151,2.33151,0,0,0-2.646,1.88794l-3.612,14.744c-.084.37806-.084.63007-.25195.63007-.168,0-.168-.252-.21-.63007l-3.024-25.036a.77119.77119,0,0,0-.71405-.752h-4.452c-.378,0-.714.209-.714.585v.126l3.948,27.385c.378,2.643,1.596,3.399,3.78,3.399h2.268c1.89,0,2.898-.924,3.486-3.35706l3.318-13.863c.084-.378.126-.462.294-.462.168,0,.168.084.252.462l3.318,13.863c.588,2.433,1.596,3.35706,3.486,3.35706h2.268c2.184,0,3.402-.756,3.78-3.399l3.948-27.385v-.126C254.124,387.53387,253.788,387.32489,253.41,387.32489Z"/><path class="cls-1" d="M196.41705,394.50684c-6.427,0-10.078,4.111-10.078,10.667v3.104c0,8.27606,5.959,10.54206,10.162,10.54206a37.3242,37.3242,0,0,0,8.147-.714c.755-.126.88092-.41907.88092-1.09009v-2.76892c0-.42005-.33594-.63105-.75494-.63105h-.126c-1.76208.169-4.65906.421-7.727.421-4.034,0-5.043-2.901-5.043-5.339v-.126h13.693c.587,0,.83905-.378.83905-1.04895v-2.34906C206.41,398.91187,202.886,394.50684,196.41705,394.50684Zm4.412,10.122H191.92v-.168c0-3.322,1.891-5.171,4.497-5.171,2.605,0,4.412,1.891,4.412,5.171Z"/><path class="cls-1" d="M159.12207,394.50684a11.29064,11.29064,0,0,0-6.34607,1.552v-8.692a.8416.8416,0,0,0-.83893-.84h-3.86a.84162.84162,0,0,0-.839.84v30.23493a.87871.87871,0,0,0,.839.88208h3.86a.8787.8787,0,0,0,.83893-.88208v-16.968a10.927,10.927,0,0,1,4.875-1.428c2.816,0,3.447.924,3.447,4.57794v13.818a.87872.87872,0,0,0,.839.88208h3.86a.87873.87873,0,0,0,.83905-.88208v-13.818C166.63605,398.61786,164.916,394.50684,159.12207,394.50684Z"/><path class="cls-1" d="M140.514,387.32489h-4.155a.8062.8062,0,0,0-.839.796v29.524a.842.842,0,0,0,.839.839h4.155a.842.842,0,0,0,.839-.839v-29.524A.8062.8062,0,0,0,140.514,387.32489Z"/><path class="cls-1" d="M183.436,394.50684a9.77441,9.77441,0,0,0-6.006,2.014v-.88a.84162.84162,0,0,0-.839-.84h-3.65a.84251.84251,0,0,0-.84.84v21.96094a.87955.87955,0,0,0,.84.88208h3.86a.8794.8794,0,0,0,.839-.88208v-16.88a11.89042,11.89042,0,0,1,5.796-1.512.84244.84244,0,0,0,.84-.84v-3.024A.84162.84162,0,0,0,183.436,394.50684Z"/><path class="cls-1" d="M140.451,358.94989v-18.828a.80665.80665,0,0,0-.84-.797h-4.154a.80639.80639,0,0,0-.839.797v18.828c0,4.78-1.177,7.045-5.715,7.045s-5.714-2.265-5.714-7.045v-18.828a.80667.80667,0,0,0-.84-.797h-4.15393a.80641.80641,0,0,0-.83905.797v18.828c0,8.933,4.784,11.87,11.547,11.87C135.66705,370.81989,140.451,367.88287,140.451,358.94989Z"/><path class="cls-1" d="M221.173,369.60187v-16.88a11.891,11.891,0,0,1,5.796-1.512.84246.84246,0,0,0,.84-.84v-3.024a.84158.84158,0,0,0-.84-.839,9.774,9.774,0,0,0-6.006,2.014v-.88a.84166.84166,0,0,0-.839-.84h-3.65a.8416.8416,0,0,0-.83893.84v21.961a.87865.87865,0,0,0,.83893.882h3.86A.87871.87871,0,0,0,221.173,369.60187Z"/><path class="cls-1" d="M182.874,357.88586l-5.505-3.361c-1.051-.631-1.681-1.051-1.681-1.723,0-1.302.88293-1.764,2.90094-1.764a61.76745,61.76745,0,0,1,6.928.504h.168c.42,0,.671-.294.671-.798v-2.433a.91248.91248,0,0,0-.755-.965,31.0816,31.0816,0,0,0-7.475-.839c-5.333,0-7.977,2.097-7.977,6.295a6.92452,6.92452,0,0,0,3.525,5.798l5.755,3.52894c1.346.841,1.85,1.345,1.85,2.143,0,1.134-.378,2.017-2.98492,2.017-1.26105,0-5.04-.21-7.054-.462h-.168a.69992.69992,0,0,0-.713.672v2.517a.949.949,0,0,0,.79694.965,34.79932,34.79932,0,0,0,7.517.83906c5.501,0,8.229-2.895,8.229-6.548C186.902,362.12885,186.398,360.02887,182.874,357.88586Z"/><path class="cls-1" d="M346.924,357.88586l-5.504-3.361c-1.051-.631-1.682-1.051-1.682-1.723,0-1.302.883-1.764,2.901-1.764a61.76754,61.76754,0,0,1,6.928.504h.168c.42,0,.671-.294.671-.798v-2.433a.91248.91248,0,0,0-.755-.965,31.0805,31.0805,0,0,0-7.475-.839c-5.333,0-7.977,2.097-7.977,6.295a6.92446,6.92446,0,0,0,3.525,5.798l5.756,3.52894c1.345.841,1.849,1.345,1.849,2.143,0,1.134-.378,2.017-2.985,2.017-1.26105,0-5.04-.21-7.054-.462h-.168a.69991.69991,0,0,0-.71295.672v2.517a.949.949,0,0,0,.797.965,34.79858,34.79858,0,0,0,7.517.83906c5.502,0,8.229-2.895,8.229-6.548C350.952,362.12885,350.448,360.02887,346.924,357.88586Z"/><path class="cls-1" d="M360.151,364.10486h-3.735a.807.807,0,0,0-.839.797v4.742a.84225.84225,0,0,0,.839.84h3.735a.8423.8423,0,0,0,.839-.84v-4.742A.80709.80709,0,0,0,360.151,364.10486Z"/><path class="cls-1" d="M151.664,369.60187v-16.88a10.65738,10.65738,0,0,1,4.749-1.516c3.236,0,3.572,1.05,3.572,4.704v13.692a.87953.87953,0,0,0,.84.882h3.86a.87938.87938,0,0,0,.839-.882v-13.692c0-5.334-1.21692-9.403-7.262-9.403a10.89918,10.89918,0,0,0-6.808,2.014v-.88a.84166.84166,0,0,0-.839-.84h-3.65a.84251.84251,0,0,0-.84.84v21.961a.87954.87954,0,0,0,.84.882h3.86A.87934.87934,0,0,0,151.664,369.60187Z"/><path class="cls-1" d="M273.507,370.81989c6.595,0,10.036-4.448,10.036-10.455v-3.403c0-6.008-3.441-10.455-10.036-10.455-6.594,0-10.035,4.447-10.035,10.455v3.403C263.472,366.37189,266.913,370.81989,273.507,370.81989Zm-4.496-13.858c0-3.446,1.555-5.672,4.496-5.672,2.942,0,4.497,2.226,4.497,5.672v3.403c0,3.445-1.555,5.67206-4.497,5.67206-2.941,0-4.496-2.227-4.496-5.67206Z"/><path class="cls-1" d="M301.644,370.48389h5.124a.51028.51028,0,0,0,.462-.84l-8.526-11.59,8.442-10.371a.67873.67873,0,0,0,.168-.42c0-.294-.21-.462-.63-.462H301.98a1.28848,1.28848,0,0,0-.966.504l-7.182,9.574v-17.512a.84162.84162,0,0,0-.839-.84h-3.86a.84163.84163,0,0,0-.839.84v30.235a.87871.87871,0,0,0,.839.882h3.86a.8787.8787,0,0,0,.839-.882v-9.532l6.594,9.574A1.77563,1.77563,0,0,0,301.644,370.48389Z"/><path class="cls-1" d="M324.035,368.67987v.965a.84225.84225,0,0,0,.84.839h3.86a.84164.84164,0,0,0,.83905-.84v-21.961a.87871.87871,0,0,0-.83905-.882h-3.86a.87953.87953,0,0,0-.84.882v16.8c-1.176.63-3.194,1.68-4.749,1.68a3.64274,3.64274,0,0,1-2.605-.756c-.79907-.714-.967-1.93195-.967-4.032v-13.692a.87865.87865,0,0,0-.83893-.882H311.015a.87958.87958,0,0,0-.84.882v13.692c0,3.486.54608,6.088,2.098,7.641a7.15641,7.15641,0,0,0,5.16406,1.762A10.85088,10.85088,0,0,0,324.035,368.67987Z"/><path class="cls-1" d="M251.413,343.93988h8.568a.84245.84245,0,0,0,.84-.84v-2.685c0-.587-.21-.797-.84-.881a39.63451,39.63451,0,0,0-7.98-.587c-5.458,0-9.697,1.468-9.697,8.60705v22.09a.84249.84249,0,0,0,.84.84H247.256a.84162.84162,0,0,0,.839-.84v-12.852h11.382a.84247.84247,0,0,0,.84-.84v-3.02a.84158.84158,0,0,0-.84-.839H248.095v-4.539C248.095,344.77985,248.977,343.93988,251.413,343.93988Z"/><path class="cls-1" d="M200.89,346.5069c-6.426,0-10.077,4.111-10.077,10.667v3.104c0,8.276,5.959,10.542,10.161,10.542a37.31156,37.31156,0,0,0,8.147-.714c.756-.126.882-.419.882-1.09v-2.769c0-.42005-.336-.63105-.756-.63105h-.126c-1.762.169-4.658.42109-7.726.42109-4.035,0-5.043-2.90107-5.043-5.339v-.126h13.693c.587,0,.839-.378.839-1.04895v-2.349C210.884,350.91187,207.359,346.5069,200.89,346.5069Zm4.413,10.122H196.394v-.168c0-3.322,1.89105-5.171,4.496-5.171,2.606,0,4.413,1.891,4.413,5.171Z"/></svg>
