<?xml version="1.0" encoding="utf-8"?>
<!-- Generator: Adobe Illustrator 25.4.7, SVG Export Plug-In . SVG Version: 6.00 Build 0)  -->
<svg version="1.1" id="Ebene_1" xmlns="http://www.w3.org/2000/svg" xmlns:xlink="http://www.w3.org/1999/xlink" x="0px" y="0px"
	 viewBox="0 0 478.3459778 304.0580139" style="enable-background:new 0 0 478.3459778 304.0580139;" xml:space="preserve">
<style type="text/css">
	.st0{fill:#D2091F;}
	.st1{fill:#75787B;}
</style>
<g>
	<g>
		<path class="st0" d="M162.19104,132.9580078c-1.5540161-2.6339722-3.8180542-5.0650024-6.7870483-7.2940063
			c-2.9719849-2.2279663-5.5709839-4.0169678-7.7999268-5.367981c-2.2280273-1.348999-5.368042-2.7349854-9.4200439-4.1530151
			c-4.052002-1.4190063-7.1610107-2.4320068-9.3189697-3.0390015c-2.1620483-0.6079712-5.4040527-1.4500122-9.7250366-2.53302
			c-3.9190063-0.9429932-6.8560181-1.6519775-8.8129883-2.1270142c-1.9589844-0.4719849-4.3550415-1.2149658-7.1919556-2.2279663
			c-2.8359985-1.0130005-4.9310303-2.026001-6.2800293-3.0390015c-1.3520508-1.0130005-2.5320435-2.2949829-3.5450439-3.8499756
			c-1.0130005-1.5510254-1.5199585-3.342041-1.5199585-5.368042c0-4.3209839,1.9909668-7.6289673,5.9769897-9.927002
			c3.9819946-2.2949829,8.6759644-3.4439697,14.0799561-3.4439697c6.0780029,0,11.1740723,1.5189819,15.2960815,4.5579834
			c4.1179199,3.0390015,6.1789551,7.4639893,6.1789551,13.2700195h30.3880005
			c0-14.1820068-4.4910278-25.3240356-13.4719849-33.4279785c-8.9840088-8.1040649-21.5100098-12.1550293-37.5810547-12.1550293
			c-15.9379272,0-28.4989624,3.7160034-37.6819458,11.1419678c-9.1860352,7.4300537-13.776062,17.8980103-13.776062,31.4020386
			c0,3.2410278,0.335022,6.3150024,1.0130005,9.2179565c0.6740723,2.9060669,1.4840698,5.4700317,2.4310303,7.6980591
			c0.9429932,2.2290039,2.3300171,4.355957,4.1530151,6.381958s3.4760132,3.7160034,4.9639893,5.0650024
			c1.4840088,1.3510132,3.5770264,2.7030029,6.2800293,4.052002c2.7000122,1.3510132,4.8939819,2.3989868,6.5839844,3.1400146
			c1.6870117,0.7440186,4.117981,1.5889893,7.2929688,2.5319824c3.1720581,0.9470215,5.5720215,1.6210327,7.1920776,2.026001
			c1.6209717,0.4050293,4.052002,1.0130005,7.2939453,1.822998c4.052002,0.9470215,7.0900269,1.69104,9.1160278,2.2290039
			c2.026001,0.5410156,4.4890137,1.3519897,7.3949585,2.4310303c2.9030151,1.0830078,5.0650635,2.1270142,6.4830322,3.1399536
			c1.4180298,1.0130005,2.664978,2.3650513,3.7479858,4.052002c1.0789795,1.6900024,1.6209717,3.6150513,1.6209717,5.7740479
			c0,5.1339722-2.2639771,9.1859741-6.7869263,12.1549683c-4.5270386,2.9730225-9.8960571,4.4570312-16.1060181,4.4570312
			c-3.1090088,0-6.078064-0.4050293-8.9140625-1.2150269c-2.8369141-0.8099976-5.3689575-2.026001-7.5979614-3.6469727
			c-2.2280273-1.6199951-3.9849854-3.7480469-5.2670288-6.3810425c-1.2849731-2.6339722-1.9249268-5.6380005-1.9249268-9.0159912
			H59.1730347c0,15.1279907,5.0299683,27.0460205,15.0930176,35.7579956
			c10.0599365,8.7109985,23.3299561,13.0670166,39.80896,13.0670166c10.1300049,0,19.1450195-1.6209717,27.0460205-4.8619385
			c7.901001-3.2420654,14.3500366-8.3730469,19.3480225-15.3970337c4.9949341-7.0209961,7.4959717-15.4640503,7.4959717-25.3240356
			c0-4.3209839-0.5759888-8.3380127-1.7219849-12.0540161C165.0939941,138.7659912,163.7420044,135.5910034,162.19104,132.9580078z"
			/>
		<path class="st0" d="M282.4370117,132.9580078c-1.5539551-2.6339722-3.8170166-5.0650024-6.7869873-7.2940063
			c-2.9719849-2.2279663-5.5709839-4.0169678-7.7990112-5.367981c-2.2290039-1.348999-5.3690186-2.7349854-9.4210205-4.1530151
			c-4.0519409-1.4190063-7.1599731-2.4320068-9.3189697-3.0390015c-2.1619873-0.6079712-5.4039917-1.4500122-9.7250366-2.53302
			c-3.9179688-0.9429932-6.855957-1.6519775-8.8119507-2.1270142c-1.960022-0.4719849-4.3560181-1.2149658-7.1920166-2.2279663
			c-2.8370361-1.0130005-4.9320068-2.026001-6.2810059-3.0390015c-1.3509521-1.0130005-2.5319824-2.2949829-3.5449829-3.8499756
			c-1.0130005-1.5510254-1.519043-3.342041-1.519043-5.368042c0-4.3209839,1.9910278-7.6289673,5.9760132-9.927002
			c3.9819946-2.2949829,8.677002-3.4439697,14.0800171-3.4439697c6.0780029,0,11.1740112,1.5189819,15.2960205,4.5579834
			c4.117981,3.0390015,6.1790161,7.4639893,6.1790161,13.2700195h30.3889771
			c0-14.1820068-4.4920044-25.3240356-13.4729614-33.4279785c-8.9830322-8.1040649-21.5090332-12.1550293-37.5800781-12.1550293
			c-15.9389648,0-28.4989624,3.7160034-37.6829224,11.1419678c-9.1860352,7.4300537-13.776062,17.8980103-13.776062,31.4020386
			c0,3.2410278,0.3360596,6.3150024,1.0130005,9.2179565c0.6740112,2.9060669,1.4849854,5.4700317,2.4310303,7.6980591
			c0.9439697,2.2290039,2.3299561,4.355957,4.1529541,6.381958c1.8240356,2.026001,3.4760132,3.7160034,4.9640503,5.0650024
			c1.4839478,1.3510132,3.5770264,2.7030029,6.2799683,4.052002c2.7000122,1.3510132,4.8939819,2.3989868,6.5839844,3.1400146
			c1.6879883,0.7440186,4.1190186,1.5889893,7.2940063,2.5319824c3.1719971,0.9470215,5.5709839,1.6210327,7.1920166,2.026001
			c1.6209717,0.4050293,4.052002,1.0130005,7.2929688,1.822998c4.052002,0.9470215,7.0910034,1.69104,9.1170654,2.2290039
			c2.0259399,0.5410156,4.4879761,1.3519897,7.3939819,2.4310303c2.9029541,1.0830078,5.0650024,2.1270142,6.4829712,3.1399536
			c1.4180298,1.0130005,2.6660156,2.3650513,3.7480469,4.052002c1.0799561,1.6900024,1.6209717,3.6150513,1.6209717,5.7740479
			c0,5.1339722-2.2630005,9.1859741-6.7869873,12.1549683c-4.5270386,2.9730225-9.8950195,4.4570312-16.1060181,4.4570312
			c-3.1080322,0-6.0780029-0.4050293-8.9140015-1.2150269s-5.3690186-2.026001-7.5969849-3.6469727
			c-2.2290039-1.6199951-3.9860229-3.7480469-5.2680054-6.3810425c-1.2850342-2.6339722-1.9240112-5.6380005-1.9240112-9.0159912
			h-30.9969482c0,15.1279907,5.0299683,27.0460205,15.0929565,35.7579956
			c10.0599976,8.7109985,23.3300171,13.0670166,39.8099976,13.0670166c10.1289673,0,19.1450195-1.6209717,27.0460205-4.8619385
			c7.901001-3.2420654,14.348999-8.3730469,19.3469849-15.3970337c4.9949951-7.0209961,7.4959717-15.4640503,7.4959717-25.3240356
			c0-4.3209839-0.5759888-8.3380127-1.7219849-12.0540161C285.3400269,138.7659912,283.9880371,135.5910034,282.4370117,132.9580078
			z"/>
		<polygon class="st0" points="388.5810547,55.4660034 388.5810547,110.1660156 335.3000488,110.1660156 335.3000488,55.4660034 
			304.5060425,55.4660034 304.5060425,197.2810059 335.3000488,197.2810059 335.3000488,138.7319946 388.5810547,138.7319946 
			388.5810547,197.2810059 419.1730347,197.2810059 419.1730347,55.4660034 		"/>
	</g>
	<g>
		<path class="st1" d="M180.7640381,224.9119873h-5.0400391c-0.3599854,0-0.6119995,0.2880249-0.68396,0.6480103l-4.5,20.7720337
			c-0.0720215,0.3959961-0.1800537,0.539978-0.5039673,0.539978c-0.3240356,0-0.4320679-0.1439819-0.5040283-0.539978
			l-4.5-20.7720337c-0.0720215-0.3599854-0.3600464-0.6480103-0.7199707-0.6480103h-5.0040894
			c-0.3599854,0-0.6479492,0.2520142-0.6479492,0.5760498c0,0.0719604,0.0359497,0.1079712,0.0359497,0.1799927
			l5.3640747,22.3200073c0.8279419,3.4559937,3.4919434,3.9959717,5.9760132,3.9959717
			c2.4839478,0,5.1119385-0.539978,5.9399414-3.9959717l5.3640137-22.3200073c0-0.0720215,0.0360107-0.144043,0.0360107-0.1799927
			C181.3760376,225.1279907,181.1240234,224.9119873,180.7640381,224.9119873z"/>
		<path class="st1" d="M201.8599854,225.0560303c-1.2599487-0.1800537-3.0599976-0.4680176-6.947937-0.4680176
			c-4.644043,0-8.7839966,1.1519775-8.7839966,7.7039795v11.9520264c0,6.552002,4.1039429,7.7399902,8.7479858,7.7399902
			c3.8880005,0,5.723999-0.2880249,6.9839478-0.4680176c0.5040283-0.0719604,0.7200317-0.2879639,0.7200317-0.7559814v-3.3480225
			c0-0.3959961-0.3239746-0.7199707-0.7200317-0.7199707h-7.3079834c-1.6920166,0-2.3040161-0.5759888-2.3040161-2.447998v-3.81604
			h9.3240356c0.3959961,0,0.7199707-0.3239746,0.7199707-0.7199707v-3.4199829c0-0.3959961-0.3239746-0.7200317-0.7199707-0.7200317
			h-9.3240356v-3.276001c0-1.8720093,0.6119995-2.447998,2.3040161-2.447998h7.3079834
			c0.3960571,0,0.7200317-0.3239746,0.7200317-0.7199707v-3.3480225
			C202.5800171,225.3079834,202.3640137,225.1279907,201.8599854,225.0560303z"/>
		<path class="st1" d="M151.9280396,224.9119873h-4.7160034c-0.3959961,0-0.7200317,0.2880249-0.7200317,0.684021v9.5760498
			h-8.8919678v-9.5760498c0-0.3959961-0.3240356-0.684021-0.7199707-0.684021h-4.7160645
			c-0.3959961,0-0.7199707,0.2880249-0.7199707,0.684021v25.3439941c0,0.3959961,0.3239746,0.7200317,0.7199707,0.7200317h4.7160645
			c0.3959351,0,0.7199707-0.3240356,0.7199707-0.7200317v-10.4039917h8.8919678v10.4039917
			c0,0.3959961,0.3240356,0.7200317,0.7200317,0.7200317h4.7160034c0.3959961,0,0.7199707-0.3240356,0.7199707-0.7200317
			v-25.3439941C152.6480103,225.2000122,152.3240356,224.9119873,151.9280396,224.9119873z"/>
		<path class="st1" d="M124.1370239,225.2000122c-0.7559814-0.2520142-2.8439941-0.6119995-5.3639526-0.6119995
			c-5.4720459,0-10.6560059,2.8439941-10.6560059,11.4119873v4.5360107c0,8.5679932,5.18396,11.447998,10.6560059,11.447998
			c2.5199585,0,4.6079712-0.3599854,5.3639526-0.6119995c0.5039673-0.1439819,0.7919922-0.3239746,0.7919922-0.8280029v-3.4919434
			c0-0.4320679-0.2160034-0.7200317-0.684021-0.7200317c-0.0359497,0-0.0719604,0-0.1079712,0
			c-1.367981,0.1079712-3.3480225,0.2879639-5.3280029,0.2879639c-2.4840088,0-4.4639893-1.2959595-4.4639893-6.0839844V236
			c0-4.7879639,1.9799805-6.0839844,4.4639893-6.0839844c1.9799805,0,3.960022,0.1799927,5.3280029,0.2880249
			c0.0360107,0,0.0720215,0,0.1079712,0c0.4680176,0,0.684021-0.2880249,0.684021-0.7200317v-3.4920044
			C124.9290161,225.4880371,124.6409912,225.3439941,124.1370239,225.2000122z"/>
		<path class="st1" d="M98.3250122,228.5839844c-0.8279419-3.4559937-3.4559937-3.9959717-5.9400024-3.9959717
			c-2.4839478,0-5.1479492,0.539978-5.9760132,3.9959717l-5.3640137,22.3200073c0,0.0720215-0.0359497,0.144043-0.0359497,0.1800537
			c0,0.3599854,0.2519531,0.5759888,0.6119995,0.5759888h5.039978c0.3600464,0,0.6480103-0.2880249,0.7200317-0.6480103
			l1.2960205-5.9039917h7.3800049l1.2959595,5.9039917c0.0720215,0.3599854,0.3599854,0.6480103,0.7199707,0.6480103h5.0400391
			c0.3599854,0,0.6119995-0.2160034,0.6119995-0.5759888c0-0.0360107-0.0360107-0.1080322-0.0360107-0.1800537
			L98.3250122,228.5839844z M89.6849976,240.1760254l2.1960449-9.9360352
			c0.0720215-0.3599854,0.1799927-0.539978,0.5039673-0.539978c0.3240356,0,0.3959961,0.1799927,0.4680176,0.539978
			l2.1960449,9.9360352H89.6849976z"/>
		<path class="st1" d="M71.7210083,236.7919922l-4.6080322-2.4840088c-1.9439697-1.0440063-2.4119873-1.5119629-2.4119873-2.5199585
			c0-1.2960205,0.7560425-1.90802,2.8080444-1.90802c2.447998,0,6.6239624,0.3240356,7.632019,0.3959961
			c0.0360107,0,0.0719604,0,0.0719604,0c0.4680176,0,0.6119995-0.2879639,0.6119995-0.6119995v-3.6359863
			c0-0.3959961-0.2520142-0.5759888-0.539978-0.6480103c-1.368042-0.3599854-5.0040283-0.7919922-7.632019-0.7919922
			c-6.9840088,0-9.2160034,3.0599976-9.2160034,7.0200195c0,2.6279907,0.9000244,4.8959961,4.2479858,6.8759766l4.9680176,2.9520264
			c1.8720093,1.1159668,2.3759766,1.6919556,2.3759766,2.7359619c0,1.7280273-0.7199707,2.5200195-3.2039795,2.5200195
			c-1.4039917,0-5.3640137-0.2880249-6.8400269-0.4320068c-0.0359497,0-0.0719604,0-0.1079712,0
			c-0.3599854,0-0.6480103,0.1799927-0.6480103,0.684021v3.5279541c0,0.3959961,0.3599854,0.6120605,0.7200317,0.7200317
			c1.8359985,0.4680176,3.9599609,0.7919922,6.8039551,0.7919922c7.3079834,0,9.828064-4.0679932,9.828064-7.8839722
			C76.5810547,241.184021,75.4650269,238.8079834,71.7210083,236.7919922z"/>
		<path class="st1" d="M285.0910034,222.8240356h3.3840332c0.3959961,0,0.7559814-0.3240356,0.7559814-0.7200317v-3.3480225
			c0-0.3959351-0.3599854-0.7199707-0.7559814-0.7199707h-3.3840332c-0.3959961,0-0.7919312,0.3240356-0.7919312,0.7199707
			v3.3480225C284.2990723,222.5,284.6950073,222.8240356,285.0910034,222.8240356z"/>
		<path class="st1" d="M292.8670044,222.8240356h3.3840332c0.3959961,0,0.7919922-0.3240356,0.7919922-0.7200317v-3.3480225
			c0-0.3959351-0.3959961-0.7199707-0.7919922-0.7199707h-3.3840332c-0.3959961,0-0.7559814,0.3240356-0.7559814,0.7199707
			v3.3480225C292.1110229,222.5,292.4710083,222.8240356,292.8670044,222.8240356z"/>
		<path class="st1" d="M328.2550659,224.9119873h-4.2480469c-0.3959961,0-0.7200317,0.2880249-0.7200317,0.684021v15.2280273
			c0,0.2519531-0.1079712,0.3239746-0.1799927,0.3239746c-0.1079712,0-0.1439819-0.0720215-0.2879639-0.2880249
			l-8.5320435-14.8319702c-0.4319458-0.7559814-0.7919922-1.1160278-1.5119629-1.1160278h-3.6359863
			c-0.7560425,0-1.367981,0.6119995-1.367981,1.368042v24.6599731c0,0.3959961,0.3239746,0.7200317,0.7199707,0.7200317h4.2479858
			c0.3960571,0,0.7200317-0.3240356,0.7200317-0.7200317v-14.5799561c0-0.2160034,0.0719604-0.2880249,0.1799927-0.2880249
			c0.1079712,0,0.1799927,0.0720215,0.3239746,0.2880249l8.2080078,14.18396
			c0.5759888,0.9719849,1.1159668,1.1160278,1.8720093,1.1160278h3.5280151c0.7559814,0,1.4039917-0.6119995,1.4039917-1.368042
			v-24.6959839C328.9750366,225.2000122,328.651001,224.9119873,328.2550659,224.9119873z"/>
		<path class="st1" d="M345.2470093,224.5880127c-2.9879761,0-6.1919556,0.2879639-7.6679688,0.539978
			c-0.684021,0.1080322-1.0440063,0.4320068-1.0440063,1.2600098v23.7960205c0,0.8280029,0.3599854,1.1519775,1.0440063,1.2600098
			c1.4760132,0.2519531,4.6799927,0.539978,7.6679688,0.539978c7.1640015,0,11.4840088-3.7800293,11.4840088-11.3759766v-4.644043
			C356.7310181,228.367981,352.4110107,224.5880127,345.2470093,224.5880127z M350.5750122,240.6080322
			c0,4.8599854-2.0880127,6.1559448-5.3280029,6.1559448c-0.8999634,0-2.052002-0.0359497-2.5559692-0.0719604v-16.8120117
			c0.5039673-0.0360107,1.6560059-0.0720215,2.5559692-0.0720215c3.2399902,0,5.3280029,1.2960205,5.3280029,6.1560059V240.6080322z
			"/>
		<path class="st1" d="M395.0700073,225.4160156c-1.3319702-0.2880249-3.9238892-0.8280029-7.5239868-0.8280029
			c-5.2199707,0-10.9439697,2.3040161-10.9439697,11.4840088v4.4639893c0,9.1080322,6.1560059,11.447998,10.2599487,11.447998
			c3.6000366,0,6.1200562-0.3599854,8.0640259-0.7559814c0.539978-0.1080322,0.7200928-0.3240356,0.7200928-0.8280029v-12.0960083
			c0-0.3959961-0.3240967-0.7200317-0.7200928-0.7200317h-4.6079712c-0.3960571,0-0.684021,0.3240356-0.684021,0.7200317v8.2800293
			c-0.8640137,0.0719604-1.7639771,0.1079712-2.7720337,0.1079712c-1.7639771,0-4.0319214-1.1520386-4.0319214-6.1199951v-4.5
			c0-4.7160034,1.7999268-6.1199951,4.7159424-6.1199951c3.0599976,0,5.7600098,0.2160034,7.4880371,0.2879639
			c0.0359497,0,0.0719604,0,0.1080322,0c0.3239136,0,0.539917-0.0719604,0.539917-0.4679565v-3.815979
			C395.6820068,225.632019,395.4300537,225.4880371,395.0700073,225.4160156z"/>
		<path class="st1" d="M369.0780029,224.9119873h-4.8239746c-0.3959961,0-0.6480103,0.2880249-0.6480103,0.684021v25.3439941
			c0,0.3959961,0.2520142,0.7200317,0.6480103,0.7200317h4.8239746c0.3959961,0,0.684082-0.3240356,0.684082-0.7200317v-25.3439941
			C369.762085,225.2000122,369.473999,224.9119873,369.0780029,224.9119873z"/>
		<path class="st1" d="M419.4050293,250.7600098v-3.3480225c0-0.3959961-0.322998-0.7199707-0.7189941-0.7199707h-7.30896
			c-1.69104,0-2.3030396-0.5759888-2.3030396-2.447998v-3.81604h9.322998c0.3959961,0,0.7199707-0.3239746,0.7199707-0.7199707
			v-3.4199829c0-0.3959961-0.3239746-0.7200317-0.7199707-0.7200317h-9.322998v-3.276001
			c0-1.8720093,0.6119995-2.447998,2.3030396-2.447998h7.30896c0.3959961,0,0.7189941-0.3239746,0.7189941-0.7199707v-3.3480225
			c0-0.4680176-0.2159424-0.6480103-0.7189941-0.7199707c-1.2600098-0.1800537-3.0599976-0.4680176-6.947998-0.4680176
			c-4.6450195,0-8.7850342,1.1519775-8.7850342,7.7039795v11.9520264c0,6.552002,4.1040039,7.7399902,8.7490234,7.7399902
			c3.8880005,0,5.723999-0.2880249,6.9840088-0.4680176C419.1890869,251.4440308,419.4050293,251.2280273,419.4050293,250.7600098z"
			/>
		<path class="st1" d="M296.6470337,228.5839844c-0.8280029-3.4559937-3.4559937-3.9959717-5.9400024-3.9959717
			s-5.1480103,0.539978-5.9760132,3.9959717l-5.3640137,22.3200073c0,0.0720215-0.0359497,0.144043-0.0359497,0.1800537
			c0,0.3599854,0.2519531,0.5759888,0.6119385,0.5759888h5.0400391c0.3599854,0,0.6480103-0.2880249,0.7200317-0.6480103
			l1.2959595-5.9039917h7.3800049l1.2960205,5.9039917c0.0719604,0.3599854,0.3599854,0.6480103,0.7199707,0.6480103h5.039978
			c0.3599854,0,0.6120605-0.2160034,0.6120605-0.5759888c0-0.0360107-0.0360718-0.1080322-0.0360718-0.1800537
			L296.6470337,228.5839844z M288.007019,240.1760254l2.1960449-9.9360352
			c0.0719604-0.3599854,0.1799316-0.539978,0.5039673-0.539978c0.3239746,0,0.3959961,0.1799927,0.4680176,0.539978
			l2.1959839,9.9360352H288.007019z"/>
		<path class="st1" d="M224.7560425,240.6799927c2.6279907-1.0440063,4.6439819-3.3839722,4.6439819-7.2000122v-0.4679565
			c0-6.3720093-4.7160034-8.4240112-10.8359985-8.4240112c-2.59198,0-5.6519775,0.2160034-7.3079834,0.4680176
			c-1.1160278,0.1799927-1.6200562,0.5039673-1.6200562,1.7279663v24.1560059c0,0.3959961,0.3240356,0.7200317,0.7200317,0.7200317
			h4.6800537c0.3959351,0,0.7199707-0.3240356,0.7199707-0.7200317v-9.1439819c0.684021,0,1.7999878,0.0719604,2.5560303,0.0719604
			l0.3959351-0.0359497l4.8240356,9.1079712c0.1799927,0.3600464,0.3239746,0.7200317,0.7199707,0.7200317h5.5079956
			c0.3960571,0,0.539978-0.1800537,0.539978-0.4320068c0-0.1080322-0.0359497-0.2520142-0.1079712-0.3959961
			L224.7560425,240.6799927z M223.2800293,233.4799805c0,2.447998-1.1879883,3.4200439-4.9679565,3.4200439
			c-0.3960571,0-2.1600342-0.0360107-2.5560303-0.0719604v-6.9120483c0.4320068-0.0360107,2.3039551-0.1080322,2.8079834-0.1080322
			c3.0239868,0,4.7160034,1.0079956,4.7160034,3.2040405V233.4799805z"/>
		<path class="st1" d="M248.6229858,236.7919922l-4.6079712-2.4840088
			c-1.9440308-1.0440063-2.4119873-1.5119629-2.4119873-2.5199585c0-1.2960205,0.7560425-1.90802,2.8079834-1.90802
			c2.4480591,0,6.6240234,0.3240356,7.632019,0.3959961c0.0360107,0,0.0719604,0,0.0719604,0
			c0.4680176,0,0.6119995-0.2879639,0.6119995-0.6119995v-3.6359863c0-0.3959961-0.2519531-0.5759888-0.539978-0.6480103
			c-1.367981-0.3599854-5.0040283-0.7919922-7.632019-0.7919922c-6.9840088,0-9.2160034,3.0599976-9.2160034,7.0200195
			c0,2.6279907,0.9000244,4.8959961,4.2480469,6.8759766l4.9679565,2.9520264
			c1.8720093,1.1159668,2.3760376,1.6919556,2.3760376,2.7359619c0,1.7280273-0.7200317,2.5200195-3.2040405,2.5200195
			c-1.4039917,0-5.3639526-0.2880249-6.8399658-0.4320068c-0.0360107,0-0.0720215,0-0.1080322,0
			c-0.3599243,0-0.6479492,0.1799927-0.6479492,0.684021v3.5279541c0,0.3959961,0.3599854,0.6120605,0.7199707,0.7200317
			c1.8359985,0.4680176,3.960022,0.7919922,6.8040161,0.7919922c7.3079834,0,9.8280029-4.0679932,9.8280029-7.8839722
			C253.4830322,241.184021,252.3670044,238.8079834,248.6229858,236.7919922z"/>
		<path class="st1" d="M276.9910278,224.9119873h-17.8560181c-0.3959961,0-0.7199707,0.2880249-0.7199707,0.684021v3.7080078
			c0,0.3959961,0.3239746,0.684021,0.7199707,0.684021h5.867981v20.9519653c0,0.3959961,0.3240356,0.7200317,0.7200317,0.7200317
			h4.7160034c0.3959961,0,0.7199707-0.3240356,0.7199707-0.7200317v-20.9519653h5.8320312
			c0.3959961,0,0.7559814-0.2880249,0.7559814-0.684021v-3.7080078
			C277.7470093,225.2000122,277.3870239,224.9119873,276.9910278,224.9119873z"/>
		<path class="st1" d="M6.8970337,64.6270142c3.80896,0,6.8969727-3.0870361,6.8969727-6.8959961V25.6990356
			c0-6.5750122,5.0009766-11.9050293,11.5759888-11.9050293h32.1730347c3.80896,0,6.8969727-3.0880127,6.8969727-6.8969727
			C64.4400024,3.0880127,61.3519897,0,57.5430298,0h-32.882019C11.0410156,0,0,11.0410156,0,24.6610107v33.0700073
			C0,61.539978,3.0880127,64.6270142,6.8970337,64.6270142z"/>
		<path class="st1" d="M57.5430298,290.2639771H25.3699951c-6.5750122,0-11.5759888-5.3309937-11.5759888-11.9059448v-32.0310059
			c0-3.809021-3.0880127-6.8970337-6.8969727-6.8970337C3.0880127,239.4299927,0,242.5180054,0,246.3270264v33.0689697
			c0,13.6210327,11.0410156,24.6619873,24.6610107,24.6619873h32.882019c3.80896,0,6.8969727-3.0879517,6.8969727-6.8969727
			C64.4400024,293.3520508,61.3519897,290.2639771,57.5430298,290.2639771z"/>
		<path class="st1" d="M453.6849976,0h-32.881958c-3.809021,0-6.8970337,3.0880127-6.8970337,6.8970337
			c0,3.80896,3.0880127,6.8969727,6.8970337,6.8969727h32.1729736c6.5750122,0,11.5759888,5.3300171,11.5759888,11.9050293
			v32.0319824c0,3.80896,3.0880127,6.8959961,6.8970337,6.8959961s6.8969727-3.0870361,6.8969727-6.8959961V24.6610107
			C478.3460083,11.0410156,467.3050537,0,453.6849976,0z"/>
		<path class="st1" d="M471.4490356,239.4299927c-3.809021,0-6.8970337,3.0880127-6.8970337,6.8970337v32.0310059
			c0,6.5749512-5.0009766,11.9059448-11.5759888,11.9059448h-32.1729736c-3.809021,0-6.8970337,3.0880737-6.8970337,6.8970337
			c0,3.809021,3.0880127,6.8969727,6.8970337,6.8969727h32.881958c13.6200562,0,24.6610107-11.0409546,24.6610107-24.6619873
			v-33.0689697C478.3460083,242.5180054,475.2580566,239.4299927,471.4490356,239.4299927z"/>
	</g>
</g>
</svg>
