<?xml version="1.0" encoding="UTF-8"?><svg id="Pfade" xmlns="http://www.w3.org/2000/svg" viewBox="0 0 32 32.29742"><path d="M0,8.53787c.00087-1.56915,1.26349-2.84133,2.82048-2.84219l13.43551-.00955c5.56542-.00434,10.07316,4.53987,10.06969,10.14958l-.00955,13.61961c-.00087,1.56829-1.26349,2.84133-2.82049,2.84219-1.55613.00087-2.81701-1.26957-2.81614-2.83872l.00955-13.1915c.00174-2.70847-2.03982-4.90198-4.72657-4.90025l-13.14634.00955C1.26001,11.37746-.00087,10.10703,0,8.53787" fill="#5f6163" stroke-width="0"/><path d="M8.49994,5.69134l-.00958-.00092c-1.55609.00092-2.81702-1.26953-2.8161-2.83868,0-.0011.00031-.0022.00031-.0033l-.04395.00006c-1.55701.00085-2.81958,1.27307-2.82043,2.84222,0,.00201.00061.00391.00061.00592.00336,0,.00635-.00098.0097-.00098" fill="#acacad" stroke-width="0"/><path d="M26.32019,23.63324l-.00339-.1407-.00409,5.81604c1.55552.13411,2.81272-1.13566,2.81357-2.70042v-.00128c-1.53595-.02362-2.80786-1.4198-2.80609-2.97363Z" fill="#acacad" stroke-width="0"/><path d="M29.12628,26.60687l.00958-13.61835c.00342-5.60968-4.50427-10.15387-10.0697-10.14954l-13.3916.00946C5.67725,1.28161,6.93884.01044,8.49469.00952L21.93024,0c5.56543-.00348,10.07312,4.53986,10.0697,10.14954l-.00958,13.61963c-.00085,1.5683-1.30792,2.83679-2.86407,2.83771h0" fill="#d2d3d3" stroke-width="0"/><polygon points="5.67426 2.85174 5.67456 2.84845 5.67456 2.84845 5.67426 2.85174" fill="#868789" stroke-width="0"/><path d="M19.06616,2.83899l-13.3916.00946c0,.0011-.00031.0022-.00031.0033-.00092,1.56915,1.26001,2.8396,2.8161,2.83868l.00958.00092,7.75543-.00525c5.56543-.00433,10.07404,4.53986,10.0697,10.1496l-.00519,7.79626h0c-.00177,1.55383,1.27045,2.95129,2.8064,2.97491l.00958-13.61835c.00342-5.60968-4.50427-10.15387-10.0697-10.14954Z" fill="#868789" stroke-width="0"/></svg>