<?xml version="1.0" encoding="utf-8"?>
<svg version="1.1" xmlns="http://www.w3.org/2000/svg" xmlns:xlink="http://www.w3.org/1999/xlink" x="0px" y="0px"
	 viewBox="0 0 24 24" style="enable-background:new 0 0 24 24;" xml:space="preserve">
<g>
	<path d="M23.1147499,20.8251953l-3.1300049-3.1300049c0.710022-1.0800171,1.0300293-2.4400024,0.7000122-3.9000244
		c-0.4299927-1.9299927-2.0499878-3.4499512-4-3.7799683c-3.3800049-0.5700073-6.2700195,2.2600098-5.8300171,5.6099854
		c0.3200073,2.3500366,2.3500366,4.2000122,4.7200317,4.3099976c1.1099854,0.0599976,2.1400146-0.2600098,3-0.8200073
		l3.1199951,3.1199951c0.3900146,0.3900146,1.0299683,0.3900146,1.4199829,0
		C23.5047646,21.8452148,23.5047646,21.21521,23.1147499,20.8251953z M15.8147621,17.9451904c-1.6500244,0-3-1.3499756-3-3
		s1.3499756-3,3-3s3,1.3499756,3,3S17.4647865,17.9451904,15.8147621,17.9451904z"/>
	<path d="M3.0717816,8h15.4770508c0.5522461,0,1-0.4477539,1-1s-0.4477539-1-1-1H3.0717816c-0.5522461,0-1,0.4477539-1,1
		S2.5195355,8,3.0717816,8z"/>
	<path d="M8.5112343,11H3.0717816c-0.5522461,0-1,0.4477539-1,1s0.4477539,1,1,1h5.4394526c0.5522461,0,1-0.4477539,1-1
		S9.0634804,11,8.5112343,11z"/>
	<path d="M8.0551796,16h-4.983398c-0.5522461,0-1,0.4472656-1,1s0.4477539,1,1,1h4.983398c0.5522461,0,1-0.4472656,1-1
		S8.6074257,16,8.0551796,16z"/>
</g>
</svg>
