<?xml version="1.0" encoding="UTF-8" standalone="no"?>
<!DOCTYPE svg PUBLIC "-//W3C//DTD SVG 1.1//EN" "http://www.w3.org/Graphics/SVG/1.1/DTD/svg11.dtd">
<svg width="100%" height="100%" viewBox="0 0 21 21" version="1.1" xmlns="http://www.w3.org/2000/svg" xmlns:xlink="http://www.w3.org/1999/xlink" xml:space="preserve" xmlns:serif="http://www.serif.com/" style="fill-rule:evenodd;clip-rule:evenodd;stroke-linejoin:round;stroke-miterlimit:2;">
    <g>
        <path d="M19.5,0L1.6,0C0.7,0 0,0.7 0,1.5L0,19.5C0,20.3 0.5,21 1.3,21L19.2,21C20.1,21 21,20.3 21,19.5L21,1.5C21,0.7 20.3,0 19.5,0" style="fill:none;fill-rule:nonzero;"/>
        <path d="M19.5,0L1.6,0C0.7,0 0,0.7 0,1.5L0,19.5C0,20.3 0.5,21 1.3,21L19.2,21C20.1,21 21,20.3 21,19.5L21,1.5C21,0.7 20.3,0 19.5,0ZM8,8L10.8,8L10.8,9.4C11.2,8.6 12.5,7.8 14.1,7.8C17.1,7.8 18,9.4 18,12.4L18,18L15,18L15,13C15,11.7 14.5,10.5 13.2,10.5C11.7,10.5 11,11.5 11,13.2L11,18L8,18L8,8ZM3,18L6,18L6,8L3,8L3,18ZM6.4,4.5C6.4,5.5 5.6,6.4 4.5,6.4C3.4,6.4 2.6,5.5 2.6,4.5C2.6,3.5 3.4,2.6 4.5,2.6C5.6,2.6 6.4,3.5 6.4,4.5Z" style="fill:white;"/>
    </g>
</svg>
