<?xml version="1.0" encoding="UTF-8" standalone="no"?>
<!DOCTYPE svg PUBLIC "-//W3C//DTD SVG 1.1//EN" "http://www.w3.org/Graphics/SVG/1.1/DTD/svg11.dtd">
<svg width="100%" height="100%" viewBox="0 0 74 87" version="1.1" xmlns="http://www.w3.org/2000/svg" xmlns:xlink="http://www.w3.org/1999/xlink" xml:space="preserve" xmlns:serif="http://www.serif.com/" style="fill-rule:evenodd;clip-rule:evenodd;stroke-linejoin:round;stroke-miterlimit:2;">
    <g transform="matrix(1,0,0,1,-26,-18)">
        <path d="M34.1,35.9C33.4,35.9 32.7,36.2 32.4,36.7C32.1,37.2 32.1,37.9 32.5,38.6L40.7,52.9L40.7,53L27.8,75.7C27.5,76.4 27.5,77 27.8,77.6C28.1,78.1 28.7,78.4 29.4,78.4L41.6,78.4C43.4,78.4 44.3,77.2 44.9,76C44.9,76 57.6,53.6 58.1,52.7C58.1,52.6 49.7,38.1 49.7,38.1C49.1,37 48.2,35.8 46.3,35.8L34.1,35.9Z" style="fill:white;fill-rule:nonzero;"/>
        <path d="M85.3,19.3C83.5,19.3 82.7,20.4 82,21.6C82,21.6 55.8,68.1 54.9,69.7C54.9,69.8 72.2,101.5 72.2,101.5C72.8,102.6 73.7,103.8 75.6,103.8L87.8,103.8C88.5,103.8 89.1,103.5 89.4,103C89.7,102.5 89.7,101.8 89.4,101.1L72.2,69.7L72.2,69.6L99.2,21.9C99.5,21.2 99.5,20.5 99.2,20C98.9,19.5 98.3,19.2 97.6,19.2L85.3,19.3Z" style="fill:white;fill-rule:nonzero;"/>
    </g>
</svg>
